HIERARCHY
ROOT Hips
{
  OFFSET 0.0 0.0 0.0
  CHANNELS 6 XPOSITION YPOSITION ZPOSITION ZROTATION XROTATION YROTATION 
  JOINT LeftUpLeg
  {
    OFFSET 0.08945800000000001 -0.0866707 0.0010165200000000001
    CHANNELS 3 ZROTATION XROTATION YROTATION 
    JOINT LeftLeg
    {
      OFFSET 0.0 -0.444227 0.013727000000000001
      CHANNELS 3 ZROTATION XROTATION YROTATION 
      JOINT LeftFoot
      {
        OFFSET -0.0025354900000000005 -0.42092399999999996 -0.014605900000000002
        CHANNELS 3 ZROTATION XROTATION YROTATION 
        End Site
        {
          OFFSET -0.0004 -0.0441509 0.08499100000000001
        }
      }
    }
  }
  JOINT Spine
  {
    OFFSET 0.0 0.118905 0.0
    CHANNELS 3 ZROTATION XROTATION YROTATION 
    JOINT Spine1
    {
      OFFSET 0.0 0.25657399999999997 0.00127663
      CHANNELS 3 ZROTATION XROTATION YROTATION 
      End Site
      {
        OFFSET -0.0029 0.21508359999999999 0.02525291
      }
      JOINT RightArm
      {
        OFFSET -0.162727 -0.05365632 0.0010212299999999997
        CHANNELS 3 ZROTATION XROTATION YROTATION 
        JOINT RightForeArm
        {
          OFFSET -0.26364 0.00099144 -0.0142434
          CHANNELS 3 ZROTATION XROTATION YROTATION 
          End Site
          {
            OFFSET -0.220324 0.0008536199999999999 0.010221599999999999
          }
        }
      }
      JOINT LeftArm
      {
        OFFSET 0.162727 -0.053656319900000006 0.0010212299999999997
        CHANNELS 3 ZROTATION XROTATION YROTATION 
        JOINT LeftForeArm
        {
          OFFSET 0.26259699999999997 0.00099144 -0.0142434
          CHANNELS 3 ZROTATION XROTATION YROTATION 
          End Site
          {
            OFFSET 0.220902 0.0008536199999999999 0.010221599999999999
          }
        }
      }
    }
  }
  JOINT RightUpLeg
  {
    OFFSET -0.08945800000000001 -0.0866707 0.0010165200000000001
    CHANNELS 3 ZROTATION XROTATION YROTATION 
    JOINT RightLeg
    {
      OFFSET 0.0 -0.444227 0.013727000000000001
      CHANNELS 3 ZROTATION XROTATION YROTATION 
      JOINT RightFoot
      {
        OFFSET 0.0025354900000000005 -0.42092399999999996 -0.014605900000000002
        CHANNELS 3 ZROTATION XROTATION YROTATION 
        End Site
        {
          OFFSET 0.0004 -0.0441509 0.08499100000000001
        }
      }
    }
  }
}
MOTION
Frames: 15
Frame Time: 0.033333
-0.482579 1.0505163698552296 0.038777200000000005 -0.49640598260206764 1.0776699152872564 -84.95010214162924 -4.817959945239989 -23.01839832374517 -14.867701360737174 0.9805860333115183 29.58129999342052 14.944098734151058 -13.971933150147402 -22.559211536034383 -2.2239204793701415 7.21166974930995 10.255400118953562 -0.9235850097582942 -6.991079825441102 7.077989713761283 1.3719100891414686 76.90357922384227 -22.15372028048365 -6.003284634182341 3.454379912121585 19.193500926274492 23.003300190584856 -73.67744865241347 4.858884304312589 -3.9576583456891545 -13.718499834767725 4.857820075462536 -29.270700556008773 -0.28942198232287075 -35.38750037287579 9.808850034980944 -0.9078940375223651 41.43369993938697 -9.794909618884947 7.847696111047891 1.8244436322704287 -0.5132825796283758 
-0.530544 1.0098963698552295 0.0369168 -0.7357579558732641 0.11870399201976722 -85.51499976712431 -6.792349495124057 -26.152200105521032 -15.190701006587076 1.017140031810663 37.62760093005946 15.257800784993282 -10.814209484577216 -18.00641746362086 -1.2777445122103244 5.561899880769546 12.204999924131892 -0.7634630174158341 -6.035829631803805 6.033329782567581 1.4148600261898014 76.84196408733959 -20.82593662847505 -1.4883662018723611 5.026280288038554 16.348800561497757 20.648700049702388 -74.04983739615174 6.061529072329625 -5.797143975502656 -13.5477007092878 4.94663003703245 -29.155898736439198 -1.1631299892343965 -38.275799542672004 14.44619843422464 -0.7557930351430271 39.79700219914432 -7.806869509057785 6.446389741492333 -3.6803215026485487 -0.1616609326800418 
-0.578442 0.9695753698552295 0.0317023 -1.2689999490820039 -1.9953898202609195 -85.12690158829501 -9.496359488942753 -29.1722980206364 -13.110399555225028 1.1866300021257656 48.90030223059941 13.516399659868926 -5.78605516338514 -15.904153538982635 -0.5032202702379189 0.6314890350557899 14.703701688575997 -0.4694549632716965 -2.353330152583669 4.217350248782679 0.5307999871370487 76.48031923116575 -19.389933751709474 4.135559160358599 6.52157048746031 15.612301263295283 17.070000235959405 -75.01419863525501 9.262668835358998 -9.47068822294726 -12.61000025983603 3.3995699919097597 -24.757200561890336 -3.6189501185218687 -40.60049882291545 16.62069843952492 -0.8374459723189726 42.608297816237815 -7.651159979001712 7.044780053356211 -7.0389961637896805 0.017826968824031827 
-0.626246 0.9380593698552295 0.0265001 -1.0233100405087117 -3.5854301113963847 -84.059302039887 -11.559599981531756 -31.13649991648657 -12.209500165021284 1.499369956790369 58.80469807433237 12.404500358277856 -3.7744325447880387 -19.4847026264434 -0.41063817661630686 -2.461099865515892 16.276999905395293 -0.2187790032640817 0.6573910333791824 2.7274398905493658 -0.3526949871640177 76.41413469810833 -18.303124296260798 9.390197858673243 7.337959947063485 18.22660056434727 14.181000117999615 -76.1071313552946 6.426300874482856 -14.74665162562433 -11.71340047371481 7.628079916022593 -15.25479891685306 -5.31965996477905 -43.007699958143476 16.627701090971474 -1.05811988617027 49.63929796294352 -9.770069074647258 8.823187143403697 -7.9653068459136325 0.13458387501514274 
-0.677069 0.9199993698552296 0.023497499999999998 -0.38198601329577936 -3.3720500925267203 -83.89700308482917 -11.477199725611076 -30.684300412296707 -12.131900678313476 1.817280044491555 64.6202011714372 12.91940014527479 -4.752301336748656 -25.897384530608075 -0.7843886359594905 -0.429636988122932 16.108000534761665 -0.3389349841116452 -0.6915090022221596 2.225680106855066 -0.09460989274284562 76.1823863795698 -15.050694081432862 12.616745071641418 6.882680027557945 20.6806994859639 14.479399983780072 -81.34532637318244 -12.883854987060399 -19.40077155437499 -16.00269950832758 28.011801069327046 -3.3289699549973344 -4.3463998429609 -44.5302003505581 16.240200553694557 -1.2695599178722392 57.21690107345243 -10.956399508944894 10.746278130639562 -8.760244388881091 0.2819634957904962 
-0.734134 0.9168453698552295 0.0218803 -0.1532840124879253 -1.9128200902714585 -85.86639933954314 -8.664169240468398 -26.964999446941718 -10.31769998192054 1.9468399818668225 65.35639994131618 14.0901005454305 -6.2419643140679675 -31.16227022022503 -1.35624035452499 4.517319777411768 14.1941004208277 -0.21732099800012197 -5.036040201475679 2.6321698506850892 1.3761599609090975 75.21175502680846 -9.200096618598865 13.698822059768919 5.316299938594227 20.841000610689512 17.475199500923118 -80.55227993884142 -12.341581509417345 -19.449829388088606 -16.3422999289552 26.95549865380623 -2.408410078711121 -0.6577420410694975 -43.38490057015202 17.398100325572013 -1.4434999698750168 61.444197358327116 -9.964720074482512 10.787037284511612 -11.525463549833677 0.5201893416222867 
-0.797975 0.9299823698552295 0.0195183 -0.009059100343211416 -0.6943739464138626 -88.740201432826 -5.274939728075215 -21.002799254390652 -6.913459848165784 1.7930900757723083 62.15459850371097 14.622200456304821 -8.279142939218318 -32.03555430184077 -1.920268625004769 7.991330720425028 10.297500551223873 0.5665780121134564 -7.838670869833365 3.822870111947654 2.8402199741246164 74.11743577836735 -3.5894347366841277 13.372872625971217 3.7807500428834775 20.102401029317257 20.691098448975243 -76.42912013314734 0.06343586216416944 -15.195459940891283 -14.760399088876273 14.51229929746473 -9.284699610526873 2.5870001021565026 -39.010598123771146 18.739800488014517 -1.350259990298115 60.79870350062589 -9.247709867303023 8.630800351278301 -14.885229333694719 0.612095033072656 
-0.864331 0.9592933698552295 0.0147367 0.3909789978747325 -0.3567950216567294 -89.65100032845803 -3.597849956628407 -15.404699371020039 -4.0707897571198375 1.5537000562130008 57.91210163283842 14.810300450952386 -11.224683363127472 -24.959606387754494 -1.9519344492140058 7.693309930143507 4.461550002178145 1.3179499938727812 -7.004840095297739 5.790860201466244 3.0591000028234334 73.84019839995653 -1.6766108044312613 11.668049725173217 2.7474899108579383 20.52789961649425 23.29099971125684 -75.0056130874683 12.363946963854552 -10.399898747260705 -13.412400638245373 4.45576013619609 -15.839300892813364 2.2153799681432753 -32.376899835801325 17.19499952795981 -1.189820020633279 55.97419938038738 -9.618870884537978 6.619995647834309 -16.089241420206225 0.4843609440007502 
-0.926691 1.0020853698552294 0.00832365 0.6083769555649361 -1.1801100529544597 -87.66450128006235 -3.3426301198939483 -12.366299964023622 -2.8321501056202463 1.5124601210564044 55.24940019623314 15.87459931044399 -12.525539848106945 -9.462325510082225 -0.6098426181112857 4.323540053582513 -1.336119897890602 1.1809700164596466 -3.9317599759037587 7.896109345658587 1.9371300141880032 74.39162006221918 -4.575300826389183 8.552941317382034 2.1469399785558663 21.85379984383922 25.9729981398147 -75.76372993439387 18.23645140467772 -6.548600534213812 -12.207500627141764 1.5280299641562716 -19.6694011868843 -0.8593049789013935 -24.669400187657114 12.421599736864984 -1.0217199938142738 48.67839962974945 -9.218420308594716 6.860044780648523 -12.789358466119626 0.3173428618349573 
-0.9820440000000001 1.0503163698552296 0.0032259 0.2309549760581798 -1.751019952466438 -84.30740183129855 -3.01441007508404 -11.70249949179947 -2.408300155354166 1.5568700110398273 53.99290152104467 17.62710120051691 -11.238434241474 5.749440226791994 0.8836854458654598 1.43632987207209 -4.602109745768306 0.4379990072968788 -1.5649099974665786 9.222019818287313 0.7045850258621787 74.91850768498313 -9.50594224434828 4.816536277684864 2.570739983063641 21.38149909292201 28.804400126277418 -76.1428464144646 19.093747720993747 -3.9897132772376707 -11.85190048838339 2.2299498288599704 -22.760700409002467 -3.320030091147434 -17.684700185787626 6.970610175385397 -0.7930029986067575 41.878799461934605 -7.658639889916523 9.343153223217488 -3.3676947797137795 -0.21868887678354926 
-1.0318 1.0945263698552294 0.000573829 -0.5106390296153164 -1.5688400242819804 -81.941499434887 -2.330370044801848 -11.952600528637825 -1.534769973484899 1.5834199168390188 52.65989789696289 19.045898830763225 -8.924780230892113 10.278675696097672 1.0518866982223987 1.8140700690250604 -5.392260179901232 0.16819400862115902 -2.3243900007400904 9.939100034905795 0.6816969552317603 75.2856098623038 -14.10329988600155 1.7798683236430446 4.28676973018575 19.165799386548212 30.91140078710505 -75.30330005225414 17.082306529296474 -2.729492148951543 -12.67659972688553 3.7705201270540907 -25.794701174173394 -3.989489588542353 -13.904399654728902 3.1424899958435306 -0.7134770250270362 38.796901995208955 -6.73665015621625 12.792490107854077 11.499353444184012 -1.7749042702203264 
-1.07795 1.1281063698552296 -0.00163181 -0.9424090111108493 -1.2936000493165685 -81.37639690371682 -1.9126700395531298 -12.88269983131702 -0.22661700552242833 1.4941600165575304 50.436200039071004 18.395599934980893 -8.157095142713006 5.646498176942501 0.6236219377924046 3.849729830858729 -5.334609968211739 0.6784069918467827 -5.724200116487858 10.889300584312336 1.8152100702862177 75.7009263449756 -17.172574309367363 0.36731586085607626 5.926000189950001 17.20300109457248 32.11969881732074 -73.95729516308724 15.559614891585097 -2.8754543587317736 -13.89740041837693 3.6654001006330095 -28.130999823174815 -4.135710278293986 -13.808500383687337 1.0354100407885065 -0.7505860297570973 39.68270239847874 -7.076379923551276 15.75868758513429 24.881643193473383 -3.9329650774054428 
-1.12111 1.1502863698552295 -0.00455379 -0.9976570239249073 -1.1091999894867393 -81.51660019680968 -1.8319999559265785 -14.17850026876339 0.2680160093814921 1.2864399833539852 46.21180316949899 16.975299663117177 -9.965799244371375 -0.32770020338104694 0.29909243629012455 5.121669856213305 -4.718190091373143 1.2791199415544356 -8.321879432855088 11.82249993910107 2.9376598797108415 75.84539167611054 -18.377351377065914 0.23602897951827945 6.2400100261916975 17.007399844668946 33.012097183328756 -73.38418082002063 13.662950760021658 -3.7460117007647926 -14.31700028343197 3.8689798652607634 -29.18830115386174 -4.288950268078276 -15.328600818382341 -0.6729579949929935 -0.7866599406627841 42.03419992593073 -7.413440367581296 16.06731992806507 27.658349025062638 -4.425742735454353 
-1.16293 1.1662263698552295 -0.00795375 -1.0309599591008316 -0.9327389573499922 -81.13449892407165 -2.157390167985986 -14.76459965521583 -0.8989999572842449 1.1366300291935105 39.08789878970277 17.236200936580616 -11.369262246157364 -4.439166618494367 -0.03871653377392721 4.87207980290223 -3.0062800155376093 1.3619499657842975 -8.146060118335203 11.422600047159639 3.0863601415746005 75.30107341058472 -17.801422996061266 0.32307285694006904 5.387809884770145 18.26120059513526 33.93640277804448 -74.01959331850692 11.195746412935067 -3.9933392539133012 -13.71500021659174 5.173870003831952 -29.67670066065267 -4.394079686009467 -16.23450076083218 -2.472649928845795 -0.7970200036123712 41.93430157913013 -7.508330478172991 13.900316909152526 20.50703338857986 -2.9735646900737174 
-1.20434 1.1735563698552296 -0.011482699999999998 -0.9095889916535861 -0.653363036037873 -80.18870213913247 -2.575429975145912 -15.073201262295347 -3.4306200318766376 1.0845298798131822 30.805099137957555 17.603400444096966 -11.278740895313538 -8.596508532776605 -0.42918624899856406 4.09682003493358 -0.39537198344981433 1.0367499318045927 -6.7956002382821605 9.426330413156258 2.5362699393132906 74.33008005779736 -16.381821111040185 0.2776464693895043 4.24035005703905 19.760900108553084 34.67099986856311 -74.95662697074097 9.05397155149561 -3.4708442965593123 -12.986400032164385 6.501159747786196 -30.0103997978374 -4.338650139573874 -16.351899759833653 -3.464259780756008 -0.7823299742549663 37.50510148729528 -9.427799757601457 12.272635018614297 10.926015412422094 -1.632950634430953 
